<?xml version="1.0" encoding="utf-8"?>
<!-- Generator: Adobe Illustrator 15.1.0, SVG Export Plug-In . SVG Version: 6.00 Build 0)  -->
<!DOCTYPE svg PUBLIC "-//W3C//DTD SVG 1.1//EN" "http://www.w3.org/Graphics/SVG/1.1/DTD/svg11.dtd">
<svg version="1.1" id="Layer_1" xmlns="http://www.w3.org/2000/svg" xmlns:xlink="http://www.w3.org/1999/xlink" x="0px" y="0px"
	 width="1366px" height="768px" viewBox="0 0 1366 768" enable-background="new 0 0 1366 768" xml:space="preserve">
<g display="none">
	
		<linearGradient id="SVGID_1_" gradientUnits="userSpaceOnUse" x1="-1186.4026" y1="-2061.9329" x2="-1205.2529" y2="-2076.116" gradientTransform="matrix(1 0 0 -1 219.2202 831.2788)">
		<stop  offset="0" style="stop-color:#2AA9FF"/>
		<stop  offset="1" style="stop-color:#3FFFEC"/>
	</linearGradient>
	<path display="inline" fill="url(#SVGID_1_)" d="M-992.081,2901h40.306l-16.435-16.435c-2.027-2.026-3.261-4.541-3.719-7.164
		c-0.458,2.623-1.69,5.138-3.718,7.164L-992.081,2901z"/>
	
		<linearGradient id="SVGID_2_" gradientUnits="userSpaceOnUse" x1="-926.1458" y1="-2061.9329" x2="-944.9964" y2="-2076.1162" gradientTransform="matrix(1 0 0 -1 219.2202 831.2788)">
		<stop  offset="0" style="stop-color:#2AA9FF"/>
		<stop  offset="1" style="stop-color:#3FFFEC"/>
	</linearGradient>
	<path display="inline" fill="url(#SVGID_2_)" d="M-731.824,2901h40.306l-16.435-16.435c-2.026-2.026-3.26-4.542-3.718-7.165
		c-0.458,2.624-1.69,5.139-3.719,7.165L-731.824,2901z"/>
	
		<linearGradient id="SVGID_3_" gradientUnits="userSpaceOnUse" x1="-1446.6594" y1="-2061.9329" x2="-1465.5093" y2="-2076.1155" gradientTransform="matrix(1 0 0 -1 219.2202 831.2788)">
		<stop  offset="0" style="stop-color:#2AA9FF"/>
		<stop  offset="1" style="stop-color:#3FFFEC"/>
	</linearGradient>
	<path display="inline" fill="url(#SVGID_3_)" d="M-1252.337,2901h40.305l-16.436-16.435c-2.025-2.026-3.259-4.54-3.717-7.163
		c-0.458,2.623-1.69,5.137-3.718,7.163L-1252.337,2901z"/>
	
		<linearGradient id="SVGID_4_" gradientUnits="userSpaceOnUse" x1="-684.9768" y1="-1500.4465" x2="-1516.9769" y2="-2126.4468" gradientTransform="matrix(1 0 0 -1 219.2202 831.2788)">
		<stop  offset="0" style="stop-color:#2AA9FF"/>
		<stop  offset="1" style="stop-color:#3FFFEC"/>
	</linearGradient>
	<path display="inline" fill="url(#SVGID_4_)" d="M-1272.244,2848.223c5.233-5.238,13.725-5.238,18.96,0l17.382,17.379
		c2.026,2.025,3.259,4.541,3.718,7.164c0.458-2.622,1.691-5.136,3.717-7.161l17.381-17.382c5.236-5.238,13.727-5.238,18.961,0
		l52.777,52.776h74.583l52.778-52.776c5.234-5.238,13.725-5.238,18.96,0l17.381,17.379c2.026,2.026,3.26,4.542,3.718,7.165
		c0.458-2.622,1.691-5.137,3.719-7.162l17.379-17.383c5.238-5.237,13.728-5.237,18.962,0L-879.09,2901h74.581l52.777-52.776
		c5.235-5.238,13.725-5.238,18.962,0l17.38,17.379c2.027,2.026,3.261,4.542,3.719,7.166c0.458-2.623,1.69-5.138,3.718-7.163
		l17.381-17.383c5.236-5.237,13.727-5.237,18.961,0l52.778,52.777h74.582l52.775-52.777c5.236-5.237,13.727-5.237,18.962,0
		l17.381,17.379c2.026,2.027,3.261,4.541,3.719,7.166c0.458-2.623,1.69-5.138,3.719-7.162l17.378-17.383
		c5.238-5.238,13.728-5.238,18.963,0l52.777,52.777h74.583l52.776-52.777c5.233-5.238,13.726-5.238,18.962,0l17.381,17.379
		c2.015,2.017,3.246,4.512,3.711,7.119c0.418-2.721,1.661-5.34,3.758-7.436l17.379-17.383c5.236-5.238,13.727-5.238,18.961,0
		L-97.969,2901H-29c0,0,0-346,0-512s-319.5-141.75-319.5-141.75c-320,0-362.5-114.25-362.5-114.25h-684v768h69.978
		L-1272.244,2848.223z"/>
	
		<linearGradient id="SVGID_5_" gradientUnits="userSpaceOnUse" x1="-665.8889" y1="-2061.9333" x2="-684.739" y2="-2076.1162" gradientTransform="matrix(1 0 0 -1 219.2202 831.2788)">
		<stop  offset="0" style="stop-color:#2AA9FF"/>
		<stop  offset="1" style="stop-color:#3FFFEC"/>
	</linearGradient>
	<path display="inline" fill="url(#SVGID_5_)" d="M-471.566,2901h40.306l-16.435-16.435c-2.027-2.026-3.261-4.541-3.719-7.164
		c-0.459,2.624-1.691,5.138-3.718,7.164L-471.566,2901z"/>
	
		<linearGradient id="SVGID_6_" gradientUnits="userSpaceOnUse" x1="-405.4543" y1="-2061.8103" x2="-424.4693" y2="-2076.1172" gradientTransform="matrix(1 0 0 -1 219.2202 831.2788)">
		<stop  offset="0" style="stop-color:#2AA9FF"/>
		<stop  offset="1" style="stop-color:#3FFFEC"/>
	</linearGradient>
	<path display="inline" fill="url(#SVGID_6_)" d="M-211.31,2901h40.658l-16.755-16.754c-2.015-2.016-3.247-4.512-3.712-7.117
		c-0.418,2.722-1.66,5.341-3.757,7.438L-211.31,2901z"/>
</g>
<linearGradient id="SVGID_7_" gradientUnits="userSpaceOnUse" x1="-819.45" y1="-973.637" x2="-951.9662" y2="-1050.1453" gradientTransform="matrix(1 0 0 -1 219.2202 831.2788)">
	<stop  offset="0" style="stop-color:#91A9FF"/>
	<stop  offset="1" style="stop-color:#3FFFEC"/>
</linearGradient>
<path display="none" fill="url(#SVGID_7_)" d="M-692,1748c56.333,0,102,45.668,102,102c0,56.334-45.667,102-102,102"/>
<linearGradient id="SVGID_8_" gradientUnits="userSpaceOnUse" x1="3668.5569" y1="1171.6501" x2="3550.9084" y2="1103.726" gradientTransform="matrix(-0.7626 0.6468 0.6468 0.7626 2411.3674 -1168.1066)">
	<stop  offset="0" style="stop-color:#91A9FF"/>
	<stop  offset="1" style="stop-color:#3FFFEC;stop-opacity:0"/>
</linearGradient>
<path display="none" fill="url(#SVGID_8_)" d="M504.398,2001.49c4.287,5.056,3.665,12.627-1.39,16.914l-99.905,84.732
	c-5.054,4.287-12.629,3.664-16.914-1.391l-84.733-99.906"/>
<linearGradient id="SVGID_9_" gradientUnits="userSpaceOnUse" x1="2015.1008" y1="2866.6208" x2="1911.6531" y2="2806.8953" gradientTransform="matrix(-0.7155 -0.6986 -0.6986 0.7155 3210.3042 1285.9435)">
	<stop  offset="0" style="stop-color:#91A9FF"/>
	<stop  offset="1" style="stop-color:#3FFFEC;stop-opacity:0"/>
</linearGradient>
<path display="none" fill="url(#SVGID_9_)" d="M-142.529,2053.435l-93.731-91.516c-4.741-4.631-4.831-12.229-0.202-16.971
	l91.519-93.732"/>
<linearGradient id="SVGID_10_" gradientUnits="userSpaceOnUse" x1="2900.2034" y1="3075.1316" x2="2745.3726" y2="2985.74" gradientTransform="matrix(-0.8468 -0.5319 -0.5319 0.8468 2918.3975 615.7164)">
	<stop  offset="0" style="stop-color:#91A9FF"/>
	<stop  offset="1" style="stop-color:#3FFFEC"/>
</linearGradient>
<path display="none" fill="url(#SVGID_10_)" d="M-1078.736,1748.275c-50.054-25.846-118.336-7.71-88.375-55.414
	s163.81-76.875,175.128-76.627"/>
<linearGradient id="SVGID_11_" gradientUnits="userSpaceOnUse" x1="-141.7849" y1="-629.7029" x2="-24.469" y2="-629.7029" gradientTransform="matrix(1 -2.239376e-005 -2.239376e-005 -1 181.9096 1016.2493)">
	<stop  offset="0" style="stop-color:#2AA9FF"/>
	<stop  offset="1" style="stop-color:#0A0404"/>
</linearGradient>
<path display="none" fill="url(#SVGID_11_)" d="M115.152,1645.954l40.534-40.534c2.357-2.356,2.357-6.177,0-8.534l-7.822-7.822
	c-2.355-2.356-6.177-2.357-8.532,0.002L98.796,1629.6l-40.536-40.534c-2.356-2.357-6.177-2.357-8.533,0.001l-7.821,7.823
	c-2.356,2.354-2.357,6.176,0,8.531l40.536,40.532l-40.533,40.535c-2.357,2.356-2.358,6.178,0,8.534l7.82,7.823
	c2.356,2.354,6.177,2.354,8.533-0.001l40.535-40.535l40.535,40.533c2.355,2.355,6.177,2.355,8.532,0.001l7.822-7.824
	c2.357-2.354,2.358-6.177,0-8.533L115.152,1645.954z"/>
<g>
	
		<linearGradient id="SVGID_12_" gradientUnits="userSpaceOnUse" x1="675.9924" y1="106.1628" x2="556.9782" y2="16.616" gradientTransform="matrix(1 0 0 -1 219.2202 831.2788)">
		<stop  offset="0" style="stop-color:#EE9CA7"/>
		<stop  offset="1" style="stop-color:#FFDDE1"/>
	</linearGradient>
	<path fill="url(#SVGID_12_)" d="M865.807,646.201c-2.518-2.515-4.125-5.587-4.861-8.815c-0.738,3.227-2.346,6.295-4.859,8.809
		L733.715,768.57l0.43,0.43h253.61l0.43-0.43L865.807,646.201z"/>
	
		<linearGradient id="SVGID_13_" gradientUnits="userSpaceOnUse" x1="1029.2122" y1="106.1648" x2="910.1993" y2="16.6192" gradientTransform="matrix(1 0 0 -1 219.2202 831.2788)">
		<stop  offset="0" style="stop-color:#EE9CA7"/>
		<stop  offset="1" style="stop-color:#FFDDE1"/>
	</linearGradient>
	<path fill="url(#SVGID_13_)" d="M1219.029,646.201c-2.519-2.517-4.127-5.59-4.862-8.82c-0.737,3.229-2.347,6.298-4.861,8.813
		L1086.937,768.57l0.43,0.43h253.608l0.43-0.43L1219.029,646.201z"/>
	
		<linearGradient id="SVGID_14_" gradientUnits="userSpaceOnUse" x1="-30.4504" y1="106.1633" x2="-149.4634" y2="16.6175" gradientTransform="matrix(1 0 0 -1 219.2202 831.2788)">
		<stop  offset="0" style="stop-color:#EE9CA7"/>
		<stop  offset="1" style="stop-color:#FFDDE1"/>
	</linearGradient>
	<path fill="url(#SVGID_14_)" d="M159.365,646.201c-2.518-2.516-4.125-5.588-4.861-8.817c-0.737,3.228-2.345,6.296-4.859,8.811
		L27.273,768.57l0.431,0.43h253.608l0.431-0.43L159.365,646.201z"/>
	
		<linearGradient id="SVGID_15_" gradientUnits="userSpaceOnUse" x1="693.8645" y1="652.9304" x2="-101.709" y2="54.3378" gradientTransform="matrix(1 0 0 -1 219.2202 831.2788)">
		<stop  offset="0" style="stop-color:#EE9CA7"/>
		<stop  offset="1" style="stop-color:#FFDDE1"/>
	</linearGradient>
	<path fill="url(#SVGID_15_)" d="M100.266,596.819c7.112-7.123,18.648-7.118,25.76-0.005l23.616,23.615
		c2.519,2.519,4.126,5.593,4.863,8.824c0.737-3.229,2.345-6.298,4.859-8.812l23.611-23.617c7.113-7.12,18.648-7.12,25.762-0.004
		l122.378,122.372l122.371-122.375c7.111-7.123,18.648-7.118,25.762-0.005l23.615,23.615c2.519,2.519,4.126,5.592,4.862,8.822
		c0.738-3.228,2.346-6.296,4.861-8.81l23.61-23.617c7.112-7.12,18.649-7.12,25.762-0.004l122.379,122.372l122.371-122.375
		c7.111-7.123,18.647-7.118,25.76-0.005l23.615,23.615c2.519,2.519,4.127,5.592,4.863,8.821c0.737-3.227,2.346-6.296,4.859-8.809
		l23.611-23.617c7.11-7.12,18.648-7.12,25.762-0.004l122.377,122.372l122.372-122.375c7.112-7.123,18.648-7.118,25.761-0.005
		l23.615,23.615c2.519,2.52,4.128,5.594,4.863,8.825c0.737-3.229,2.346-6.299,4.86-8.813l23.61-23.617
		c7.113-7.12,18.647-7.12,25.761-0.004L1369,697.415V262c0,0,0-114-332-114S686,1,686,1H3v693.089L100.266,596.819z"/>
	
		<linearGradient id="SVGID_16_" gradientUnits="userSpaceOnUse" x1="322.7717" y1="106.1638" x2="203.7578" y2="16.6173" gradientTransform="matrix(1 0 0 -1 219.2202 831.2788)">
		<stop  offset="0" style="stop-color:#EE9CA7"/>
		<stop  offset="1" style="stop-color:#FFDDE1"/>
	</linearGradient>
	<path fill="url(#SVGID_16_)" d="M512.586,646.201c-2.519-2.516-4.127-5.588-4.863-8.816c-0.738,3.227-2.345,6.296-4.859,8.81
		L380.494,768.57l0.43,0.43h253.61l0.431-0.43L512.586,646.201z"/>
</g>
<linearGradient id="SVGID_17_" gradientUnits="userSpaceOnUse" x1="1596.5364" y1="-1484.3372" x2="774.6017" y2="-2102.7639" gradientTransform="matrix(1 0 0 -1 219.2202 831.2788)">
	<stop  offset="0" style="stop-color:#2AA9FF"/>
	<stop  offset="1" style="stop-color:#3FFFEC"/>
</linearGradient>
<path display="none" fill="url(#SVGID_17_)" d="M897,2109h683c0,0,19,147,351,147s332,114,332,114v507H897V2109z"/>
</svg>
