<?xml version="1.0" encoding="utf-8"?>
<!-- Generator: Adobe Illustrator 15.1.0, SVG Export Plug-In . SVG Version: 6.00 Build 0)  -->
<!DOCTYPE svg PUBLIC "-//W3C//DTD SVG 1.1//EN" "http://www.w3.org/Graphics/SVG/1.1/DTD/svg11.dtd">
<svg version="1.1" id="Layer_1" xmlns="http://www.w3.org/2000/svg" xmlns:xlink="http://www.w3.org/1999/xlink" x="0px" y="0px"
	 width="1366px" height="768px" viewBox="0 0 1366 768" enable-background="new 0 0 1366 768" xml:space="preserve">
<g>
	<linearGradient id="SVGID_1_" gradientUnits="userSpaceOnUse" x1="-967.1821" y1="2893.2109" x2="-986.0331" y2="2907.3945">
		<stop  offset="0" style="stop-color:#2AA9FF"/>
		<stop  offset="1" style="stop-color:#3FFFEC"/>
	</linearGradient>
	<path fill="url(#SVGID_1_)" d="M-992.081,2901h40.306l-16.435-16.435c-2.027-2.026-3.26-4.541-3.718-7.164
		c-0.458,2.623-1.691,5.138-3.718,7.164L-992.081,2901z"/>
	<linearGradient id="SVGID_2_" gradientUnits="userSpaceOnUse" x1="-706.9258" y1="2893.2119" x2="-725.7764" y2="2907.3953">
		<stop  offset="0" style="stop-color:#2AA9FF"/>
		<stop  offset="1" style="stop-color:#3FFFEC"/>
	</linearGradient>
	<path fill="url(#SVGID_2_)" d="M-731.824,2901h40.306l-16.435-16.435c-2.026-2.026-3.26-4.542-3.718-7.165
		c-0.458,2.624-1.69,5.139-3.718,7.165L-731.824,2901z"/>
	<linearGradient id="SVGID_3_" gradientUnits="userSpaceOnUse" x1="-1227.439" y1="2893.2119" x2="-1246.2894" y2="2907.395">
		<stop  offset="0" style="stop-color:#2AA9FF"/>
		<stop  offset="1" style="stop-color:#3FFFEC"/>
	</linearGradient>
	<path fill="url(#SVGID_3_)" d="M-1252.337,2901h40.305l-16.435-16.435c-2.026-2.026-3.259-4.54-3.717-7.163
		c-0.458,2.623-1.691,5.137-3.718,7.163L-1252.337,2901z"/>
	<linearGradient id="SVGID_4_" gradientUnits="userSpaceOnUse" x1="-465.7568" y1="2331.7256" x2="-1297.757" y2="2957.7258">
		<stop  offset="0" style="stop-color:#2AA9FF"/>
		<stop  offset="1" style="stop-color:#3FFFEC"/>
	</linearGradient>
	<path fill="url(#SVGID_4_)" d="M-1272.244,2848.223c5.234-5.238,13.725-5.238,18.96,0l17.382,17.379
		c2.026,2.026,3.259,4.541,3.718,7.164c0.458-2.622,1.691-5.136,3.717-7.161l17.38-17.382c5.237-5.238,13.727-5.238,18.961,0
		l52.778,52.777h74.583l52.778-52.777c5.234-5.238,13.725-5.238,18.96,0l17.381,17.379c2.026,2.027,3.26,4.542,3.718,7.165
		c0.458-2.622,1.691-5.137,3.718-7.162l17.379-17.382c5.238-5.238,13.728-5.238,18.962,0L-879.09,2901h74.582l52.777-52.777
		c5.235-5.238,13.725-5.238,18.962,0l17.38,17.379c2.027,2.027,3.26,4.542,3.718,7.166c0.458-2.623,1.691-5.137,3.718-7.163
		l17.381-17.382c5.236-5.238,13.727-5.238,18.961,0l52.778,52.777h74.582l52.776-52.777c5.236-5.238,13.726-5.238,18.962,0
		l17.381,17.379c2.026,2.027,3.26,4.541,3.718,7.165c0.458-2.623,1.691-5.137,3.719-7.162l17.378-17.382
		c5.238-5.238,13.728-5.238,18.963,0l52.777,52.777h74.583l52.777-52.777c5.233-5.238,13.725-5.238,18.961,0l17.381,17.379
		c2.015,2.016,3.246,4.512,3.711,7.119c0.418-2.721,1.661-5.34,3.758-7.436l17.379-17.382c5.236-5.239,13.727-5.239,18.961,0
		L-97.969,2901H-29c0,0,0-346,0-512s-319.5-141.75-319.5-141.75c-320,0-362.5-114.25-362.5-114.25h-684v768h69.978
		L-1272.244,2848.223z"/>
	<linearGradient id="SVGID_5_" gradientUnits="userSpaceOnUse" x1="-446.6685" y1="2893.2109" x2="-465.5191" y2="2907.3943">
		<stop  offset="0" style="stop-color:#2AA9FF"/>
		<stop  offset="1" style="stop-color:#3FFFEC"/>
	</linearGradient>
	<path fill="url(#SVGID_5_)" d="M-471.566,2901h40.306l-16.435-16.435c-2.027-2.026-3.261-4.541-3.719-7.164
		c-0.459,2.624-1.691,5.138-3.718,7.164L-471.566,2901z"/>
	<linearGradient id="SVGID_6_" gradientUnits="userSpaceOnUse" x1="-186.2344" y1="2893.0889" x2="-205.2499" y2="2907.3962">
		<stop  offset="0" style="stop-color:#2AA9FF"/>
		<stop  offset="1" style="stop-color:#3FFFEC"/>
	</linearGradient>
	<path fill="url(#SVGID_6_)" d="M-211.31,2901h40.658l-16.755-16.755c-2.015-2.015-3.247-4.511-3.712-7.117
		c-0.418,2.722-1.66,5.341-3.757,7.438L-211.31,2901z"/>
</g>
<linearGradient id="SVGID_7_" gradientUnits="userSpaceOnUse" x1="-600.23" y1="1804.917" x2="-732.7466" y2="1881.4255">
	<stop  offset="0" style="stop-color:#91A9FF"/>
	<stop  offset="1" style="stop-color:#3FFFEC"/>
</linearGradient>
<path fill="url(#SVGID_7_)" d="M-692,1748c56.333,0,102,45.667,102,102s-45.667,102-102,102"/>
<linearGradient id="SVGID_8_" gradientUnits="userSpaceOnUse" x1="3480.6523" y1="-663.3008" x2="3363.0085" y2="-595.3792" gradientTransform="matrix(-0.7626 0.6468 -0.6468 -0.7626 2597.0161 -658.9951)">
	<stop  offset="0" style="stop-color:#91A9FF"/>
	<stop  offset="1" style="stop-color:#3FFFEC;stop-opacity:0"/>
</linearGradient>
<path fill="url(#SVGID_8_)" d="M504.398,2001.49c4.287,5.055,3.665,12.627-1.39,16.914l-99.905,84.732
	c-5.054,4.287-12.629,3.664-16.914-1.39l-84.734-99.907"/>
<linearGradient id="SVGID_9_" gradientUnits="userSpaceOnUse" x1="1722.9941" y1="-2000.6411" x2="1619.5472" y2="-1940.916" gradientTransform="matrix(-0.7155 -0.6986 0.6986 -0.7155 2396.3508 1701.4639)">
	<stop  offset="0" style="stop-color:#91A9FF"/>
	<stop  offset="1" style="stop-color:#3FFFEC;stop-opacity:0"/>
</linearGradient>
<path fill="url(#SVGID_9_)" d="M-142.529,2053.435l-93.731-91.516c-4.742-4.63-4.832-12.229-0.203-16.97l91.519-93.733"/>
<linearGradient id="SVGID_10_" gradientUnits="userSpaceOnUse" x1="2588.1846" y1="-2264.2192" x2="2433.3499" y2="-2174.8254" gradientTransform="matrix(-0.8468 -0.5319 0.5319 -0.8468 2222.8418 1136.2415)">
	<stop  offset="0" style="stop-color:#91A9FF"/>
	<stop  offset="1" style="stop-color:#3FFFEC"/>
</linearGradient>
<path fill="url(#SVGID_10_)" d="M-1078.736,1748.275c-50.054-25.846-118.336-7.71-88.375-55.414s163.809-76.875,175.128-76.627"/>
<linearGradient id="SVGID_11_" gradientUnits="userSpaceOnUse" x1="918.7559" y1="207.6162" x2="96.8213" y2="826.0429">
	<stop  offset="0" style="stop-color:#2AA9FF"/>
	<stop  offset="1" style="stop-color:#3FFFEC"/>
</linearGradient>
<path fill="url(#SVGID_11_)" d="M0,1h683c0,0,19,147,351,147s332,114,332,114v507H0V1z"/>
<linearGradient id="SVGID_12_" gradientUnits="userSpaceOnUse" x1="77.4331" y1="1460.9893" x2="194.749" y2="1460.9893" gradientTransform="matrix(1 -2.239376e-005 2.239376e-005 1 -37.3271 184.9686)">
	<stop  offset="0" style="stop-color:#2AA9FF"/>
	<stop  offset="1" style="stop-color:#0A0404"/>
</linearGradient>
<path fill="url(#SVGID_12_)" d="M115.152,1645.954l40.534-40.535c2.357-2.356,2.357-6.176,0-8.534l-7.822-7.822
	c-2.356-2.356-6.177-2.357-8.533,0.002L98.796,1629.6l-40.536-40.534c-2.356-2.357-6.177-2.357-8.533,0.001l-7.821,7.823
	c-2.357,2.355-2.358,6.176,0,8.531l40.536,40.533l-40.534,40.535c-2.357,2.356-2.358,6.178,0,8.534l7.821,7.823
	c2.356,2.355,6.177,2.355,8.533-0.001l40.535-40.535l40.535,40.533c2.356,2.356,6.177,2.356,8.533,0.001l7.822-7.824
	c2.357-2.354,2.358-6.177,0-8.533L115.152,1645.954z"/>
<g>
	
		<linearGradient id="SVGID_13_" gradientUnits="userSpaceOnUse" x1="-128.8774" y1="584.1982" x2="150.1201" y2="584.1982" gradientTransform="matrix(1 -2.239376e-005 2.239376e-005 1 -37.3271 184.9686)">
		<stop  offset="0" style="stop-color:#2AA9FF"/>
		<stop  offset="1" style="stop-color:#0A0404"/>
	</linearGradient>
	<path fill="url(#SVGID_13_)" d="M12.204,769.168l96.396-96.401c5.605-5.604,5.606-14.687-0.001-20.295l-18.603-18.603
		c-5.603-5.604-14.69-5.607-20.292,0.004l-96.397,96.399l-96.402-96.397c-5.603-5.605-14.69-5.605-20.293,0.003l-18.599,18.604
		c-5.606,5.603-5.608,14.688,0,20.29l96.401,96.396l-96.396,96.398c-5.606,5.604-5.608,14.692,0,20.295l18.6,18.606
		c5.604,5.601,14.691,5.601,20.294-0.004l96.4-96.398l96.398,96.395c5.602,5.604,14.69,5.604,20.293,0.002l18.602-18.606
		c5.606-5.6,5.608-14.69,0.001-20.294L12.204,769.168z"/>
	
		<linearGradient id="SVGID_14_" gradientUnits="userSpaceOnUse" x1="1262.3535" y1="584.2295" x2="1541.3516" y2="584.2295" gradientTransform="matrix(1 -2.239376e-005 2.239376e-005 1 -37.3271 184.9686)">
		<stop  offset="0" style="stop-color:#2AA9FF"/>
		<stop  offset="1" style="stop-color:#0A0404"/>
	</linearGradient>
	<path fill="url(#SVGID_14_)" d="M1403.434,769.168l96.396-96.401c5.607-5.604,5.607-14.687,0-20.295l-18.603-18.603
		c-5.602-5.604-14.691-5.607-20.293,0.004l-96.396,96.399l-96.402-96.397c-5.603-5.605-14.691-5.605-20.296,0.003l-18.598,18.604
		c-5.606,5.603-5.606,14.688,0,20.29l96.401,96.396l-96.396,96.398c-5.607,5.604-5.607,14.692,0,20.295l18.6,18.606
		c5.604,5.601,14.689,5.601,20.293-0.004l96.4-96.398l96.398,96.395c5.603,5.604,14.689,5.604,20.292,0.002l18.603-18.606
		c5.606-5.6,5.606-14.69,0-20.294L1403.434,769.168z"/>
	
		<linearGradient id="SVGID_15_" gradientUnits="userSpaceOnUse" x1="984.1074" y1="584.2236" x2="1263.1045" y2="584.2236" gradientTransform="matrix(1 -2.239376e-005 2.239376e-005 1 -37.3271 184.9686)">
		<stop  offset="0" style="stop-color:#2AA9FF"/>
		<stop  offset="1" style="stop-color:#0A0404"/>
	</linearGradient>
	<path fill="url(#SVGID_15_)" d="M1125.188,769.168l96.396-96.401c5.605-5.604,5.605-14.687,0-20.295l-18.604-18.603
		c-5.602-5.604-14.692-5.607-20.292,0.004l-96.396,96.399l-96.404-96.397c-5.603-5.605-14.689-5.605-20.293,0.003l-18.599,18.604
		c-5.606,5.603-5.607,14.688,0,20.29l96.399,96.396l-96.396,96.398c-5.606,5.604-5.607,14.692,0,20.295l18.601,18.606
		c5.604,5.601,14.69,5.601,20.294-0.004l96.399-96.398l96.396,96.395c5.604,5.604,14.692,5.604,20.295,0.002l18.602-18.606
		c5.605-5.6,5.605-14.69,0-20.294L1125.188,769.168z"/>
	
		<linearGradient id="SVGID_16_" gradientUnits="userSpaceOnUse" x1="705.8613" y1="584.2168" x2="984.8594" y2="584.2168" gradientTransform="matrix(1 -2.239376e-005 2.239376e-005 1 -37.3271 184.9686)">
		<stop  offset="0" style="stop-color:#2AA9FF"/>
		<stop  offset="1" style="stop-color:#0A0404"/>
	</linearGradient>
	<path fill="url(#SVGID_16_)" d="M846.942,769.168l96.395-96.401c5.606-5.604,5.607-14.687,0-20.295l-18.603-18.603
		c-5.603-5.604-14.69-5.607-20.293,0.004l-96.397,96.399l-96.401-96.397c-5.603-5.605-14.691-5.605-20.293,0.003l-18.6,18.604
		c-5.605,5.603-5.607,14.688,0,20.29l96.402,96.396l-96.396,96.398c-5.606,5.604-5.607,14.692,0,20.295l18.601,18.606
		c5.604,5.601,14.69,5.601,20.294-0.004l96.399-96.398l96.397,96.395c5.604,5.604,14.69,5.604,20.294,0.002l18.601-18.606
		c5.608-5.6,5.609-14.69,0.003-20.294L846.942,769.168z"/>
	
		<linearGradient id="SVGID_17_" gradientUnits="userSpaceOnUse" x1="427.6147" y1="584.2109" x2="706.6133" y2="584.2109" gradientTransform="matrix(1 -2.239376e-005 2.239376e-005 1 -37.3271 184.9686)">
		<stop  offset="0" style="stop-color:#2AA9FF"/>
		<stop  offset="1" style="stop-color:#0A0404"/>
	</linearGradient>
	<path fill="url(#SVGID_17_)" d="M568.696,769.168l96.397-96.401c5.605-5.604,5.606-14.687-0.003-20.295l-18.602-18.603
		c-5.603-5.604-14.689-5.607-20.292,0.004l-96.397,96.399l-96.402-96.397c-5.603-5.605-14.69-5.605-20.293,0.003l-18.599,18.604
		c-5.607,5.603-5.608,14.688,0,20.29l96.401,96.396l-96.396,96.398c-5.607,5.604-5.608,14.692,0,20.295l18.6,18.606
		c5.604,5.601,14.691,5.601,20.294-0.004l96.398-96.398l96.399,96.395c5.602,5.604,14.69,5.604,20.293,0.002l18.601-18.606
		c5.606-5.6,5.606-14.69,0.001-20.294L568.696,769.168z"/>
	
		<linearGradient id="SVGID_18_" gradientUnits="userSpaceOnUse" x1="149.3687" y1="584.2051" x2="428.3662" y2="584.2051" gradientTransform="matrix(1 -2.239376e-005 2.239376e-005 1 -37.3271 184.9686)">
		<stop  offset="0" style="stop-color:#2AA9FF"/>
		<stop  offset="1" style="stop-color:#0A0404"/>
	</linearGradient>
	<path fill="url(#SVGID_18_)" d="M290.45,769.168l96.396-96.401c5.605-5.604,5.606-14.687-0.001-20.295l-18.603-18.603
		c-5.604-5.604-14.691-5.607-20.293,0.004l-96.396,96.399l-96.402-96.397c-5.604-5.605-14.69-5.605-20.293,0.003l-18.599,18.604
		c-5.606,5.603-5.607,14.688,0,20.29l96.401,96.396l-96.396,96.398c-5.606,5.604-5.607,14.692,0,20.295l18.601,18.606
		c5.604,5.601,14.69,5.601,20.293-0.004l96.399-96.398l96.399,96.395c5.603,5.604,14.69,5.604,20.293,0.002l18.601-18.606
		c5.606-5.6,5.607-14.69,0.001-20.294L290.45,769.168z"/>
</g>
<linearGradient id="SVGID_19_" gradientUnits="userSpaceOnUse" x1="1815.7559" y1="2315.6152" x2="993.8212" y2="2934.042">
	<stop  offset="0" style="stop-color:#2AA9FF"/>
	<stop  offset="1" style="stop-color:#3FFFEC"/>
</linearGradient>
<path fill="url(#SVGID_19_)" d="M897,2109h683c0,0,19,147,351,147s332,114,332,114v507H897V2109z"/>
</svg>
