<?xml version="1.0" encoding="utf-8"?>
<!-- Generator: Adobe Illustrator 15.1.0, SVG Export Plug-In . SVG Version: 6.00 Build 0)  -->
<!DOCTYPE svg PUBLIC "-//W3C//DTD SVG 1.1//EN" "http://www.w3.org/Graphics/SVG/1.1/DTD/svg11.dtd">
<svg version="1.1" id="Layer_1" xmlns="http://www.w3.org/2000/svg" xmlns:xlink="http://www.w3.org/1999/xlink" x="0px" y="0px"
	 width="1366px" height="768px" viewBox="0 0 1366 768" enable-background="new 0 0 1366 768" xml:space="preserve">
<g>
	<linearGradient id="SVGID_1_" gradientUnits="userSpaceOnUse" x1="427.8184" y1="761.2119" x2="408.9675" y2="775.3954">
		<stop  offset="0" style="stop-color:#2AA9FF"/>
		<stop  offset="1" style="stop-color:#3FFFEC"/>
	</linearGradient>
	<path fill="url(#SVGID_1_)" d="M402.919,769h40.306l-16.435-16.435c-2.027-2.026-3.26-4.541-3.718-7.164
		c-0.458,2.623-1.691,5.138-3.718,7.164L402.919,769z"/>
	<linearGradient id="SVGID_2_" gradientUnits="userSpaceOnUse" x1="688.0742" y1="761.2109" x2="669.2236" y2="775.3942">
		<stop  offset="0" style="stop-color:#2AA9FF"/>
		<stop  offset="1" style="stop-color:#3FFFEC"/>
	</linearGradient>
	<path fill="url(#SVGID_2_)" d="M663.176,769h40.306l-16.435-16.435c-2.026-2.026-3.26-4.542-3.718-7.165
		c-0.458,2.624-1.691,5.139-3.718,7.165L663.176,769z"/>
	<linearGradient id="SVGID_3_" gradientUnits="userSpaceOnUse" x1="167.561" y1="761.2119" x2="148.7106" y2="775.395">
		<stop  offset="0" style="stop-color:#2AA9FF"/>
		<stop  offset="1" style="stop-color:#3FFFEC"/>
	</linearGradient>
	<path fill="url(#SVGID_3_)" d="M142.663,769h40.305l-16.435-16.435c-2.026-2.026-3.259-4.54-3.717-7.163
		c-0.458,2.623-1.691,5.137-3.718,7.163L142.663,769z"/>
	<linearGradient id="SVGID_4_" gradientUnits="userSpaceOnUse" x1="929.2432" y1="199.7261" x2="97.2432" y2="825.7261">
		<stop  offset="0" style="stop-color:#2AA9FF"/>
		<stop  offset="1" style="stop-color:#3FFFEC"/>
	</linearGradient>
	<path fill="url(#SVGID_4_)" d="M122.756,716.223c5.234-5.238,13.725-5.238,18.96,0l17.382,17.379
		c2.026,2.026,3.259,4.541,3.718,7.164c0.458-2.622,1.691-5.136,3.717-7.161l17.38-17.382c5.237-5.238,13.727-5.238,18.961,0
		L255.652,769h74.583l52.778-52.777c5.234-5.238,13.725-5.238,18.96,0l17.381,17.379c2.026,2.027,3.26,4.542,3.718,7.165
		c0.458-2.622,1.691-5.137,3.718-7.162l17.379-17.382c5.238-5.238,13.728-5.238,18.962,0L515.91,769h74.582l52.777-52.777
		c5.235-5.238,13.725-5.238,18.962,0l17.38,17.379c2.027,2.027,3.26,4.542,3.718,7.166c0.458-2.623,1.691-5.137,3.718-7.163
		l17.381-17.382c5.236-5.238,13.727-5.238,18.961,0L776.167,769h74.582l52.776-52.777c5.236-5.238,13.726-5.238,18.962,0
		l17.381,17.379c2.026,2.027,3.26,4.541,3.718,7.165c0.458-2.623,1.691-5.137,3.719-7.162l17.378-17.382
		c5.238-5.238,13.728-5.238,18.963,0L1036.423,769h74.583l52.777-52.777c5.233-5.238,13.725-5.238,18.961,0l17.381,17.379
		c2.015,2.016,3.246,4.512,3.711,7.119c0.418-2.721,1.661-5.34,3.758-7.436l17.379-17.382c5.236-5.239,13.727-5.239,18.961,0
		L1297.031,769H1366c0,0,0-346,0-512s-319.5-141.75-319.5-141.75C726.5,115.25,684,1,684,1H0v768h69.978L122.756,716.223z"/>
	<linearGradient id="SVGID_5_" gradientUnits="userSpaceOnUse" x1="948.332" y1="761.2109" x2="929.4814" y2="775.3942">
		<stop  offset="0" style="stop-color:#2AA9FF"/>
		<stop  offset="1" style="stop-color:#3FFFEC"/>
	</linearGradient>
	<path fill="url(#SVGID_5_)" d="M923.434,769h40.306l-16.435-16.435c-2.027-2.026-3.261-4.541-3.719-7.164
		c-0.459,2.624-1.691,5.138-3.718,7.164L923.434,769z"/>
	<linearGradient id="SVGID_6_" gradientUnits="userSpaceOnUse" x1="1208.7656" y1="761.0889" x2="1189.7501" y2="775.3962">
		<stop  offset="0" style="stop-color:#2AA9FF"/>
		<stop  offset="1" style="stop-color:#3FFFEC"/>
	</linearGradient>
	<path fill="url(#SVGID_6_)" d="M1183.69,769h40.658l-16.755-16.755c-2.015-2.015-3.247-4.511-3.712-7.117
		c-0.418,2.722-1.66,5.341-3.757,7.438L1183.69,769z"/>
</g>
<linearGradient id="SVGID_7_" gradientUnits="userSpaceOnUse" x1="1250.9951" y1="128.397" x2="1096.3644" y2="217.6731" gradientTransform="matrix(-1 -0.0061 0.0061 -1 2494.9795 532.1796)">
	<stop  offset="0" style="stop-color:#91A9FF"/>
	<stop  offset="1" style="stop-color:#3FFFEC"/>
</linearGradient>
<path display="none" fill="url(#SVGID_7_)" d="M1366,406.5c-56.162,4.391-109.011,55.067-108.666-1.265
	c0.345-56.331,98.762-151.622,108.515-157.372"/>
<linearGradient id="SVGID_8_" gradientUnits="userSpaceOnUse" x1="2718.6318" y1="266.5879" x2="2561.4614" y2="357.3303" gradientTransform="matrix(1 -0.0096 0.0096 1 -2599.6504 181.5115)">
	<stop  offset="0" style="stop-color:#91A9FF"/>
	<stop  offset="1" style="stop-color:#3FFFEC"/>
</linearGradient>
<path display="none" fill="url(#SVGID_8_)" d="M0.105,413.75c56.086-5.271,108.134-56.77,108.672-0.438
	c0.538,56.33-99.01,154.453-108.672,160.355"/>
</svg>
