<?xml version="1.0" encoding="utf-8"?>
<!-- Generator: Adobe Illustrator 15.1.0, SVG Export Plug-In . SVG Version: 6.00 Build 0)  -->
<!DOCTYPE svg PUBLIC "-//W3C//DTD SVG 1.1//EN" "http://www.w3.org/Graphics/SVG/1.1/DTD/svg11.dtd">
<svg version="1.1" id="Layer_1" xmlns="http://www.w3.org/2000/svg" xmlns:xlink="http://www.w3.org/1999/xlink" x="0px" y="0px"
	 width="1366px" height="768px" viewBox="0 0 1366 768" enable-background="new 0 0 1366 768" xml:space="preserve">
<g display="none">
	<linearGradient id="SVGID_1_" gradientUnits="userSpaceOnUse" x1="427.8184" y1="761.2119" x2="408.9674" y2="775.3954">
		<stop  offset="0" style="stop-color:#2AA9FF"/>
		<stop  offset="1" style="stop-color:#3FFFEC"/>
	</linearGradient>
	<path display="inline" fill="url(#SVGID_1_)" d="M402.919,769h40.306l-16.435-16.435c-2.027-2.026-3.26-4.541-3.718-7.164
		c-0.458,2.623-1.691,5.138-3.718,7.164L402.919,769z"/>
	<linearGradient id="SVGID_2_" gradientUnits="userSpaceOnUse" x1="688.0742" y1="761.2119" x2="669.2236" y2="775.3952">
		<stop  offset="0" style="stop-color:#2AA9FF"/>
		<stop  offset="1" style="stop-color:#3FFFEC"/>
	</linearGradient>
	<path display="inline" fill="url(#SVGID_2_)" d="M663.176,769h40.306l-16.435-16.435c-2.026-2.026-3.26-4.542-3.718-7.165
		c-0.458,2.624-1.691,5.139-3.718,7.165L663.176,769z"/>
	<linearGradient id="SVGID_3_" gradientUnits="userSpaceOnUse" x1="167.561" y1="761.2129" x2="148.7106" y2="775.3961">
		<stop  offset="0" style="stop-color:#2AA9FF"/>
		<stop  offset="1" style="stop-color:#3FFFEC"/>
	</linearGradient>
	<path display="inline" fill="url(#SVGID_3_)" d="M142.663,769h40.305l-16.435-16.435c-2.026-2.026-3.259-4.54-3.717-7.163
		c-0.458,2.623-1.691,5.137-3.718,7.163L142.663,769z"/>
	<linearGradient id="SVGID_4_" gradientUnits="userSpaceOnUse" x1="929.2432" y1="199.7271" x2="97.2428" y2="825.7264">
		<stop  offset="0" style="stop-color:#2AA9FF"/>
		<stop  offset="1" style="stop-color:#3FFFEC"/>
	</linearGradient>
	<path display="inline" fill="url(#SVGID_4_)" d="M122.756,716.223c5.234-5.238,13.725-5.238,18.96,0l17.382,17.379
		c2.026,2.026,3.259,4.541,3.718,7.164c0.458-2.622,1.691-5.136,3.717-7.161l17.38-17.382c5.237-5.238,13.727-5.238,18.961,0
		L255.652,769h74.583l52.778-52.777c5.234-5.238,13.725-5.238,18.96,0l17.381,17.379c2.026,2.027,3.26,4.542,3.718,7.165
		c0.458-2.622,1.691-5.137,3.718-7.162l17.379-17.382c5.238-5.238,13.728-5.238,18.962,0L515.91,769h74.582l52.777-52.777
		c5.235-5.238,13.725-5.238,18.962,0l17.38,17.379c2.027,2.027,3.26,4.542,3.718,7.166c0.458-2.623,1.691-5.137,3.718-7.163
		l17.381-17.382c5.236-5.238,13.727-5.238,18.961,0L776.167,769h74.582l52.776-52.777c5.236-5.238,13.726-5.238,18.962,0
		l17.381,17.379c2.026,2.027,3.26,4.541,3.718,7.165c0.458-2.623,1.691-5.137,3.719-7.162l17.378-17.382
		c5.238-5.238,13.728-5.238,18.963,0L1036.423,769h74.583l52.777-52.777c5.233-5.238,13.725-5.238,18.961,0l17.381,17.379
		c2.015,2.016,3.246,4.512,3.711,7.119c0.418-2.721,1.661-5.34,3.758-7.436l17.379-17.382c5.236-5.239,13.727-5.239,18.961,0
		L1297.031,769H1366c0,0,0-346,0-512s-319.5-141.75-319.5-141.75C726.5,115.25,684,1,684,1H0v768h69.978L122.756,716.223z"/>
	<linearGradient id="SVGID_5_" gradientUnits="userSpaceOnUse" x1="948.332" y1="761.2119" x2="929.4813" y2="775.3953">
		<stop  offset="0" style="stop-color:#2AA9FF"/>
		<stop  offset="1" style="stop-color:#3FFFEC"/>
	</linearGradient>
	<path display="inline" fill="url(#SVGID_5_)" d="M923.434,769h40.306l-16.435-16.435c-2.027-2.026-3.261-4.541-3.719-7.164
		c-0.459,2.624-1.691,5.138-3.718,7.164L923.434,769z"/>
	<linearGradient id="SVGID_6_" gradientUnits="userSpaceOnUse" x1="1208.7656" y1="761.0898" x2="1189.7501" y2="775.3972">
		<stop  offset="0" style="stop-color:#2AA9FF"/>
		<stop  offset="1" style="stop-color:#3FFFEC"/>
	</linearGradient>
	<path display="inline" fill="url(#SVGID_6_)" d="M1183.69,769h40.658l-16.755-16.755c-2.015-2.015-3.247-4.511-3.712-7.117
		c-0.418,2.722-1.66,5.341-3.757,7.438L1183.69,769z"/>
</g>
<linearGradient id="SVGID_7_" gradientUnits="userSpaceOnUse" x1="-191.1191" y1="-54.3979" x2="-73.8071" y2="-54.3979" gradientTransform="matrix(0.9412 -0.338 0.338 0.9412 -188.142 77.3815)">
	<stop  offset="0" style="stop-color:#2AA9FF"/>
	<stop  offset="1" style="stop-color:#0A0404"/>
</linearGradient>
<path display="none" fill="url(#SVGID_7_)" d="M-315.811,65.427l24.451-51.849c1.422-3.014,0.131-6.609-2.884-8.031l-10.005-4.719
	c-3.014-1.422-6.611-0.131-8.031,2.885l-24.45,51.849l-51.85-24.45c-3.014-1.422-6.61-0.131-8.031,2.885l-4.717,10.006
	c-1.422,3.014-0.132,6.609,2.884,8.029l51.849,24.45l-24.45,51.849c-1.423,3.015-0.131,6.611,2.884,8.032l10.005,4.719
	c3.014,1.421,6.61,0.13,8.031-2.884l24.451-51.849l51.848,24.45c3.014,1.421,6.61,0.129,8.031-2.884l4.718-10.007
	c1.423-3.014,0.131-6.61-2.884-8.031L-315.811,65.427z"/>
<linearGradient id="SVGID_8_" gradientUnits="userSpaceOnUse" x1="2042.4404" y1="973.0586" x2="1924.7925" y2="1040.9827" gradientTransform="matrix(-0.7626 0.6468 -0.6468 -0.7626 2597.49 -658.7799)">
	<stop  offset="0" style="stop-color:#91A9FF"/>
	<stop  offset="1" style="stop-color:#3FFFEC;stop-opacity:0"/>
</linearGradient>
<path display="none" fill="url(#SVGID_8_)" d="M543.398-176.51c4.287,5.055,3.665,12.627-1.39,16.914l-99.905,84.732
	c-5.054,4.288-12.629,3.664-16.914-1.389l-84.734-99.907"/>
<linearGradient id="SVGID_9_" gradientUnits="userSpaceOnUse" x1="3105.3564" y1="-380.2949" x2="3001.908" y2="-320.5688" gradientTransform="matrix(-0.7155 -0.6986 0.6986 -0.7155 2396.4346 1701.5614)">
	<stop  offset="0" style="stop-color:#91A9FF"/>
	<stop  offset="1" style="stop-color:#3FFFEC;stop-opacity:0"/>
</linearGradient>
<path display="none" fill="url(#SVGID_9_)" d="M0.471-71.565l-93.731-91.516c-4.742-4.63-4.832-12.229-0.203-16.97l91.519-93.733"/>
<linearGradient id="SVGID_10_" gradientUnits="userSpaceOnUse" x1="1250.6865" y1="128.4072" x2="1096.057" y2="217.6826" gradientTransform="matrix(-1 -0.0061 0.0061 -1 2494.697 532.1699)">
	<stop  offset="0" style="stop-color:#91A9FF"/>
	<stop  offset="1" style="stop-color:#3FFFEC"/>
</linearGradient>
<path display="none" fill="url(#SVGID_10_)" d="M1366,406.5c-56.162,4.391-109.011,55.067-108.666-1.265
	c0.345-56.331,98.762-151.622,108.515-157.372"/>
<linearGradient id="SVGID_11_" gradientUnits="userSpaceOnUse" x1="2717.7402" y1="268.7148" x2="2560.5728" y2="359.4556" gradientTransform="matrix(1 -0.0096 0.0096 1 -2598.9189 181.4925)">
	<stop  offset="0" style="stop-color:#91A9FF"/>
	<stop  offset="1" style="stop-color:#3FFFEC"/>
</linearGradient>
<path fill="url(#SVGID_11_)" d="M0.105,415.75c56.086-5.271,108.134-56.77,108.672-0.438c0.538,56.33-99.01,154.453-108.672,160.355
	"/>
</svg>
