<?xml version="1.0" encoding="utf-8"?>
<!-- Generator: Adobe Illustrator 15.1.0, SVG Export Plug-In . SVG Version: 6.00 Build 0)  -->
<!DOCTYPE svg PUBLIC "-//W3C//DTD SVG 1.1//EN" "http://www.w3.org/Graphics/SVG/1.1/DTD/svg11.dtd">
<svg version="1.1" id="Layer_1" xmlns="http://www.w3.org/2000/svg" xmlns:xlink="http://www.w3.org/1999/xlink" x="0px" y="0px"
	 width="1366px" height="768px" viewBox="0 0 1366 768" enable-background="new 0 0 1366 768" xml:space="preserve">
<g>
	<defs>
		<path id="SVGID_1_" d="M112,113L87,70l25-43h50l25,43l-25,43H112z M162,204l25-43l-25-43h-50l-25,43l25,43H162z M162,295l25-43
			l-25-43h-50l-25,43l25,43H162z M162,386l25-43l-25-43h-50l-25,43l25,43H162z M194,161h50l25-43l-25-43h-50l-25,43L194,161z
			 M194,166l-25,43l25,43h50l25-43l-25-43H194z M194,343h50l25-43l-25-43h-50l-25,43L194,343z M194,434h50l25-43l-25-43h-50l-25,43
			L194,434z M277,209h50l25-43l-25-43h-50l-25,43L277,209z M327,214h-50l-25,43l25,43h50l25-43L327,214z M327,305h-50l-25,43l25,43
			h50l25-43L327,305z M252,439l25,43h50l25-43l-25-43h-50L252,439z M360,256h50l25-43l-25-43h-50l-25,43L360,256z M410,261h-50
			l-25,43l25,43h50l25-43L410,261z M410,352h-50l-25,43l25,43h50l25-43L410,352z M410,443h-50l-25,43l25,43h50l25-43L410,443z
			 M443,304h50l25-43l-25-43h-50l-25,43L443,304z M443,309l-25,43l25,43h50l25-43l-25-43H443z M443,400l-25,43l25,43h50l25-43
			l-25-43H443z M443,491l-25,43l25,43h50l25-43l-25-43H443z M162,477l25-43l-25-43h-50l-25,43l25,43H162z M194,525h50l25-43l-25-43
			h-50l-25,43L194,525z M327,573l25-43l-25-43h-50l-25,43l25,43H327z M410,620l25-43l-25-43h-50l-25,43l25,43H410z M443,582l-25,43
			l25,43h50l25-43l-25-43H443z M162,483h-50l-25,43l25,43h50l25-43L162,483z M244,531h-50l-25,43l25,43h50l25-43L244,531z M327,579
			h-50l-25,43l25,43h50l25-43L327,579z M410,626h-50l-25,43l25,43h50l25-43L410,626z M443,674l-25,43l25,43h50l25-43l-25-43H443z"/>
	</defs>
	<clipPath id="SVGID_2_">
		<use xlink:href="#SVGID_1_"  overflow="visible"/>
	</clipPath>
	<g transform="matrix(1 0 0 1 7.836427e-007 7.425715e-007)" clip-path="url(#SVGID_2_)">
		
			<image overflow="visible" width="2832" height="4240" xlink:href="../../../../Pictures/Japan/yearbook foto edited.png"  transform="matrix(0.1812 0 0 0.1812 26 7)">
		</image>
	</g>
</g>
</svg>
